<?xml version="1.0" standalone="no"?>
<!DOCTYPE svg PUBLIC "-//W3C//DTD SVG 20010904//EN"
 "http://www.w3.org/TR/2001/REC-SVG-20010904/DTD/svg10.dtd">
<svg version="1.0" xmlns="http://www.w3.org/2000/svg"
 width="700.000000pt" height="700.000000pt" viewBox="0 0 700.000000 700.000000"
 preserveAspectRatio="xMidYMid meet">
<metadata>
Created by potrace 1.11, written by Peter Selinger 2001-2013
</metadata>
<g transform="translate(0.000000,700.000000) scale(0.100000,-0.100000)"
fill="#000000" stroke="none">
<path d="M3425 6881 c-97 -27 -148 -69 -227 -186 -26 -39 -73 -108 -105 -155
-33 -47 -111 -161 -175 -255 -64 -93 -208 -305 -321 -470 -255 -372 -311 -461
-397 -633 -165 -330 -260 -641 -314 -1022 -15 -102 -21 -226 -21 -410 0 -233
8 -336 39 -513 l13 -78 -349 -175 c-192 -96 -353 -172 -357 -170 -5 3 -8 164
-8 358 l-1 353 -100 299 c-56 164 -108 308 -115 320 -51 76 -132 119 -223 119
-80 -1 -140 -29 -193 -90 -36 -40 -50 -76 -140 -346 l-101 -302 0 -611 0 -611
-58 -16 c-73 -20 -135 -79 -151 -142 -6 -24 -11 -108 -11 -187 0 -118 4 -150
19 -184 36 -80 99 -123 193 -131 32 -3 58 -10 58 -15 0 -6 -7 -33 -14 -61 -26
-92 -29 -118 -33 -384 l-5 -263 29 13 c15 6 70 34 122 60 51 27 96 45 100 40
10 -11 24 -60 78 -280 25 -106 50 -193 53 -193 19 0 340 342 373 397 115 189
147 402 93 612 -9 35 -15 65 -13 67 2 2 26 5 54 7 99 8 184 83 199 176 l7 41
438 0 438 0 36 -117 c43 -142 73 -220 94 -246 34 -40 98 -68 171 -74 52 -4 70
-9 66 -19 -20 -52 -39 -184 -38 -270 1 -220 86 -426 240 -580 52 -52 586 -444
625 -460 12 -4 268 173 522 360 183 136 294 301 340 509 26 116 23 272 -6 382
-20 77 -21 76 53 79 107 5 186 66 216 166 6 19 27 88 47 152 l36 118 438 0
438 0 7 -42 c15 -91 98 -165 198 -175 29 -3 55 -7 56 -9 2 -1 -1 -18 -7 -37
-12 -36 -14 -44 -26 -117 -8 -50 -8 -182 0 -220 3 -14 8 -38 11 -55 11 -61 54
-168 95 -238 30 -51 92 -122 207 -239 91 -93 168 -168 172 -168 3 0 32 107 65
238 32 130 60 239 62 241 1 2 56 -23 120 -55 65 -32 122 -61 126 -62 4 -2 7
108 6 245 -2 244 -5 274 -44 441 -7 32 -7 32 31 33 94 2 160 37 201 107 27 45
28 53 31 206 3 129 1 166 -13 202 -24 63 -79 112 -147 131 l-58 16 0 611 0
610 -102 305 -102 306 -51 52 c-51 51 -96 71 -168 78 -75 7 -181 -45 -226
-111 -12 -18 -68 -167 -123 -331 l-100 -298 -1 -357 c-1 -197 -5 -358 -9 -358
-4 0 -165 78 -357 174 l-349 175 9 48 c5 26 12 71 15 98 3 28 7 56 10 64 18
56 26 481 11 661 -34 431 -168 868 -391 1275 -36 64 -248 386 -449 680 -45 66
-183 268 -307 450 -124 181 -242 345 -262 366 -53 52 -120 81 -198 85 -36 2
-78 -1 -95 -5z m119 -222 c15 -7 106 -131 247 -338 123 -179 253 -370 291
-423 37 -54 64 -98 60 -99 -10 -1 -1264 -1 -1280 0 -7 1 1 20 21 49 18 26 63
90 98 142 117 170 202 294 244 355 23 33 77 112 120 175 43 63 88 123 99 132
24 20 64 23 100 7z m835 -1197 c188 -281 291 -485 381 -751 81 -241 116 -398
147 -661 10 -85 10 -504 0 -598 -11 -107 -44 -290 -72 -406 -26 -110 -35 -140
-150 -506 -42 -135 -90 -290 -107 -345 -17 -55 -34 -103 -38 -108 -7 -8 -2066
-11 -2079 -2 -5 2 -11 15 -14 27 -2 13 -28 97 -57 188 -232 739 -265 867 -295
1145 -15 132 -20 415 -10 515 2 25 7 72 10 105 8 84 33 238 51 315 9 36 17 73
19 82 11 51 51 186 82 273 93 264 213 495 399 765 l55 80 799 0 800 0 79 -118z
m-3581 -1436 c5 -6 38 -96 72 -201 35 -104 65 -196 68 -202 3 -10 -36 -13
-173 -13 -138 0 -176 3 -172 13 2 6 33 98 67 202 35 105 69 197 77 206 15 18
46 15 61 -5z m5472 -6 c6 -11 37 -100 70 -198 32 -97 62 -185 65 -194 7 -17
-5 -18 -170 -18 -137 0 -176 3 -173 13 3 6 33 98 68 202 34 105 67 196 73 203
15 19 55 14 67 -8z m-5289 -642 c1 -7 2 -253 3 -545 l1 -533 -30 -1 c-48 0
-357 -1 -385 0 l-25 1 2 532 c1 293 2 539 2 546 1 18 430 18 432 0z m5470 0
c1 -16 1 -1060 0 -1073 -1 -8 -224 -11 -411 -6 l-25 1 1 533 c1 292 2 538 3
545 1 9 51 12 216 12 165 0 215 -3 216 -12z m-4341 -913 c65 -209 117 -381
116 -382 -2 -2 -332 -4 -643 -3 l-163 0 0 23 c0 13 -12 47 -26 76 -31 60 -89
104 -153 115 l-39 6 1 129 1 129 380 190 381 190 13 -46 c7 -26 67 -218 132
-427z m3431 221 l255 -127 0 -132 c-1 -96 -4 -131 -13 -130 -19 4 -90 -24
-123 -48 -33 -25 -80 -110 -80 -146 l0 -23 -222 -1 c-303 0 -582 1 -584 4 -1
1 16 58 38 127 21 69 41 132 43 140 2 8 20 67 40 130 60 188 122 393 129 427
l7 32 127 -63 c70 -34 242 -120 383 -190z m-4340 -617 c0 -5 1 -47 1 -94 0
-47 -1 -92 -1 -100 -1 -13 -56 -15 -436 -15 l-435 0 0 109 0 109 435 0 c258 0
435 -3 436 -9z m5469 -100 l0 -109 -435 0 -435 0 -1 23 c-1 27 -1 191 0 194 1
1 197 2 436 1 l435 0 0 -109z m-2206 -136 c-4 -15 -19 -64 -33 -108 l-26 -80
-904 0 -905 0 -33 100 c-18 55 -33 103 -33 108 0 4 437 7 970 7 l970 0 -6 -27z
m-3526 -241 c12 -27 26 -71 32 -98 15 -64 15 -201 0 -239 -6 -16 -11 -32 -11
-35 2 -43 -103 -230 -129 -230 -4 0 -27 79 -51 176 -24 97 -46 180 -50 185 -3
5 -45 -11 -93 -35 l-88 -45 5 82 c3 45 8 96 12 112 8 38 43 154 51 166 3 5 72
9 153 9 l149 0 20 -48z m5454 21 c26 -65 55 -203 57 -270 l2 -72 -88 45 c-63
32 -89 40 -94 31 -3 -6 -25 -90 -49 -185 -25 -102 -47 -171 -53 -169 -20 6
-86 112 -112 178 -53 138 -50 290 9 432 l16 37 150 0 150 0 12 -27z m-2736
-206 c28 -32 56 -123 59 -196 5 -132 -29 -210 -144 -328 l-70 -71 -71 71
c-104 106 -140 178 -146 292 -3 63 11 132 42 202 l18 42 66 3 c115 5 234 -2
246 -15z m-555 -5 c-20 -37 -38 -162 -35 -238 3 -100 41 -219 93 -300 22 -33
108 -128 190 -211 l150 -151 137 137 c75 75 151 154 169 176 46 56 88 139 110
215 26 90 25 253 -3 333 l-20 58 101 -3 101 -3 22 -55 c34 -85 47 -221 31
-325 -16 -108 -87 -244 -168 -325 -27 -27 -143 -116 -257 -197 -114 -81 -209
-151 -213 -155 -8 -11 -446 306 -497 360 -166 178 -212 440 -117 670 l14 32
101 0 c93 0 100 -1 91 -18z"/>
<path d="M3365 5353 c-287 -37 -545 -167 -739 -374 -246 -261 -356 -593 -321
-964 4 -38 8 -72 10 -76 2 -3 7 -21 10 -40 10 -58 64 -208 101 -282 81 -163
231 -337 378 -441 112 -79 289 -160 421 -191 80 -19 215 -31 312 -29 303 8
589 131 803 344 47 47 92 95 101 106 89 114 175 281 213 415 23 80 28 106 41
201 7 46 6 224 0 278 -64 512 -445 924 -957 1036 -69 15 -306 26 -373 17z
m315 -229 c132 -25 282 -88 385 -162 125 -90 266 -255 318 -374 10 -21 24 -53
32 -70 60 -136 84 -365 55 -528 -23 -127 -86 -282 -158 -388 l-29 -42 -53 82
c-30 46 -83 113 -119 149 -64 64 -183 149 -229 163 -21 7 -20 10 27 64 253
291 137 736 -228 873 -69 26 -204 35 -286 20 -206 -38 -383 -214 -432 -431
-20 -88 -3 -232 36 -321 22 -49 95 -154 124 -178 16 -12 13 -16 -26 -35 -119
-61 -251 -182 -326 -301 -25 -38 -47 -72 -49 -75 -8 -10 -53 56 -96 140 -43
83 -78 182 -90 251 -3 19 -8 45 -12 59 -3 14 -5 75 -5 135 -1 273 105 521 300
708 148 141 313 227 506 262 90 16 266 16 355 -1z m-36 -455 c157 -73 226
-274 151 -433 -31 -66 -80 -117 -150 -154 -44 -24 -61 -27 -145 -27 -84 0
-101 3 -145 27 -95 52 -144 114 -170 216 -68 266 208 489 459 371z m37 -867
c76 -23 114 -41 189 -92 96 -66 189 -179 226 -276 l18 -46 -25 -19 c-45 -35
-156 -98 -210 -120 -146 -58 -239 -75 -409 -72 -185 2 -349 54 -513 161 -62
41 -68 47 -62 71 14 59 81 159 154 231 88 88 202 150 316 174 90 18 230 13
316 -12z"/>
<path d="M2734 2408 c0 -90 3 -108 16 -109 101 -4 193 0 198 8 6 9 7 145 3
198 -1 7 -41 11 -109 11 l-108 0 0 -108z"/>
<path d="M3175 2512 c-3 -3 -5 -52 -5 -109 l0 -103 28 -1 c55 -1 167 -1 180 0
9 1 12 30 12 109 l0 108 -105 0 c-58 1 -107 -2 -110 -4z"/>
<path d="M3610 2408 c0 -59 3 -108 8 -109 11 0 175 0 195 0 16 1 17 11 15 109
l-3 107 -107 1 -108 1 0 -109z"/>
<path d="M4049 2495 c-1 -24 -1 -164 0 -185 1 -12 18 -15 100 -14 54 1 103 4
108 7 4 3 8 52 8 109 l0 103 -107 0 c-102 0 -108 -1 -109 -20z"/>
<path d="M595 6387 c-93 -150 -177 -283 -186 -297 -10 -14 -101 -159 -202
-322 l-185 -298 207 0 208 0 -1 -490 c-1 -319 2 -491 9 -493 6 -2 55 -3 110
-3 l100 1 0 600 0 600 -117 5 -117 5 170 273 c102 162 175 270 180 265 5 -5
84 -128 174 -274 l166 -264 -118 -5 -118 -5 0 -597 c0 -329 2 -599 5 -599 3
-1 51 -2 108 -3 97 -2 102 -1 103 18 1 12 2 233 3 491 l1 470 205 5 206 5
-136 218 c-259 416 -505 810 -555 888 l-51 78 -169 -272z"/>
<path d="M5864 6067 l-371 -592 207 -3 207 -2 -1 -478 c-1 -262 0 -484 2 -492
3 -13 22 -16 110 -15 l107 0 0 600 0 600 -118 0 c-97 0 -116 2 -112 14 8 20
315 513 330 529 10 11 45 -38 183 -260 l171 -273 -117 -5 -117 -5 -1 -585 c-1
-322 0 -592 2 -600 6 -23 214 -22 215 0 0 8 2 229 2 490 l2 475 207 3 206 2
-160 258 c-88 141 -175 280 -193 307 -30 47 -143 228 -175 280 -21 35 -204
327 -210 336 -3 5 -172 -258 -376 -584z"/>
</g>
</svg>
